<svg xmlns="http://www.w3.org/2000/svg" width="10.5" height="12" viewBox="0 0 10.5 12">
  <path id="Контур_31" data-name="Контур 31" d="M3.75,3.938V2.813a.561.561,0,0,0-.562-.562H2.25V.188A.188.188,0,0,0,2.063,0H1.688A.188.188,0,0,0,1.5.188V2.25H.563A.561.561,0,0,0,0,2.813V3.938A.561.561,0,0,0,.563,4.5H1.5v7.313A.188.188,0,0,0,1.688,12h.375a.188.188,0,0,0,.188-.187V4.5h.938A.561.561,0,0,0,3.75,3.938ZM3,3.75H.75V3H3ZM6.563,7.5H5.625V.188A.188.188,0,0,0,5.438,0H5.063a.188.188,0,0,0-.187.188V7.5H3.938a.561.561,0,0,0-.562.563V9.188a.561.561,0,0,0,.563.563h.938v2.063A.188.188,0,0,0,5.063,12h.375a.188.188,0,0,0,.188-.187V9.75h.938a.561.561,0,0,0,.563-.562V8.063A.561.561,0,0,0,6.563,7.5ZM6.375,9H4.125V8.25h2.25ZM9.938,3.75H9V.188A.188.188,0,0,0,8.813,0H8.438A.188.188,0,0,0,8.25.188V3.75H7.313a.561.561,0,0,0-.562.563V5.438A.561.561,0,0,0,7.313,6H8.25v5.813A.188.188,0,0,0,8.438,12h.375A.188.188,0,0,0,9,11.813V6h.938a.561.561,0,0,0,.563-.562V4.313A.561.561,0,0,0,9.938,3.75ZM9.75,5.25H7.5V4.5H9.75Z" fill="#fff"/>
</svg>
