<svg width="0" height="0" display="none" xmlns="http://www.w3.org/2000/svg" xmlns:xlink="http://www.w3.org/1999/xlink"><symbol viewBox="0 0 28 20" id="icon-arrow-right" xmlns="http://www.w3.org/2000/svg"><path d="M26.674 10.443l.538-.538-.538-.538-9.14-9.142a.753.753 0 00-1.076 0 .765.765 0 000 1.08l7.836 7.836H.763a.764.764 0 000 1.527h23.53l-8.03 8.026a.762.762 0 001.076 1.08l9.335-9.332v.001z"/></symbol><symbol viewBox="0 0 39 50" id="icon-cart" xmlns="http://www.w3.org/2000/svg"><path d="M37.477 25.002h-2.088V6.165h-.63c-.009 0-.018-.009-.027-.018l-9.414-5.04a.9.9 0 10-.846 1.581l6.48 3.474h-10.62V4.688a.855.855 0 10-1.71 0v1.486H7.434l6.5-3.474a.9.9 0 10-.848-1.584L4.347 5.778a.92.92 0 00-.378.387h-.351v18.837H.855a.855.855 0 100 1.71h17.767v17.676a.834.834 0 00-.09.045l-5.859 3.393a.9.9 0 00.459 1.683.91.91 0 00.45-.117l5.04-2.916v2.178a.855.855 0 101.71 0v-2.25l4.905 2.79a.9.9 0 00.441.117.886.886 0 00.783-.459.9.9 0 00-.333-1.224l-5.8-3.3V26.713h17.149a.855.855 0 100-1.71v-.001zM5.328 7.875H17.38L5.328 22.779V7.875zM5.7 25.002c.041-.037.08-.076.117-.117L18.622 9.063v15.939H5.7zm14.634 0V9.468l12.472 15.534H20.334zm13.347-1.629L21.25 7.875h12.438v15.5l-.007-.002z"/></symbol><symbol viewBox="0 0 14 12" id="icon-check" xmlns="http://www.w3.org/2000/svg"><path d="M6.125 11.335L.173 5.383a.591.591 0 01-.023-.819.583.583 0 01.839-.015l5.139 5.137 6.5-9.508a.582.582 0 11.836.813L6.125 11.335z"/></symbol><symbol viewBox="0 0 22 12" id="icon-chevron-down" xmlns="http://www.w3.org/2000/svg"><path d="M10.775 11.74L.199 1.16A.68.68 0 011.16.199l9.615 9.618 9.5-9.494a.68.68 0 01.961.961L10.775 11.74z"/></symbol><symbol viewBox="0 0 23 42" id="icon-chevron-left" xmlns="http://www.w3.org/2000/svg"><path d="M.003 20.994L20.617.388A1.325 1.325 0 0122.49 2.26L3.746 21.005l18.5 18.5a1.325 1.325 0 01-1.873 1.873L.003 20.994z"/></symbol><symbol viewBox="0 0 23 42" id="icon-chevron-right" xmlns="http://www.w3.org/2000/svg"><path d="M22.875 20.775L2.26 41.38a1.325 1.325 0 01-1.873-1.873l18.744-18.744-18.5-18.5A1.325 1.325 0 012.505.39l20.37 20.384z"/></symbol><symbol viewBox="0 0 26 14" id="icon-chevron-up" xmlns="http://www.w3.org/2000/svg"><path d="M12.712 0L25.32 12.615a.811.811 0 01-1.147 1.147L12.705 2.293 1.382 13.614a.81.81 0 11-1.146-1.146L12.712 0z"/></symbol><symbol viewBox="0 0 23 23" id="icon-close" xmlns="http://www.w3.org/2000/svg"><path d="M11.963 11.052l9.953-9.953a.644.644 0 00-.911-.91l-9.953 9.959L1.1.194a.644.644 0 00-.911.911l9.953 9.953-9.948 9.947a.645.645 0 00.453 1.1.626.626 0 00.453-.19l9.953-9.953 9.953 9.953a.65.65 0 00.453.19.644.644 0 00.453-1.101l-9.949-9.952z"/></symbol><symbol viewBox="0 0 20 19" id="icon-hamburger" xmlns="http://www.w3.org/2000/svg"><path d="M20 17.143v1H0v-1h20zm0-8.572v1H0v-1h20zM20 0v1H0V0h20z"/></symbol><symbol viewBox="0 0 26 26" id="icon-notification" xmlns="http://www.w3.org/2000/svg"><path d="M0 0v25.813h25.813V0H0zm13.515 22.146a.477.477 0 01-.953 0v-1.455a.477.477 0 01.953 0v1.455zm0-4a.477.477 0 01-.953 0V4.65a.477.477 0 11.953 0v13.496z"/></symbol><symbol viewBox="0 0 21 24" id="icon-play" xmlns="http://www.w3.org/2000/svg"><path d="M0 23.539L.523 0l20.483 11.62L0 23.539zM1.792 2.24l-.419 19 16.956-9.62L1.792 2.24z"/></symbol><symbol viewBox="0 0 21 21" id="icon-plus" xmlns="http://www.w3.org/2000/svg"><path d="M10.64 9.797V.596a.424.424 0 00-.85 0L9.8 9.8H.597a.424.424 0 100 .848l9.202-.006v9.192a.422.422 0 00.721.297.409.409 0 00.125-.3l-.007-9.191h9.201a.424.424 0 000-.849l-9.2.006z"/></symbol><symbol viewBox="0 0 27 50" id="icon-profile" xmlns="http://www.w3.org/2000/svg"><path d="M.657 44.164c-1.669-3.8-.152-9.363 4.489-16.538a77.082 77.082 0 017.266-9.435l.759-.821.759.821a78 78 0 017.266 9.435c4.641 7.176 6.15 12.737 4.489 16.538-1.579 3.544-5.783 5.347-12.523 5.347-6.74 0-10.951-1.794-12.505-5.347zm6.195-15.4c-4.178 6.453-5.668 11.488-4.32 14.576 1.2 2.732 4.774 4.115 10.621 4.115s9.426-1.383 10.622-4.115c1.356-3.088-.143-8.132-4.329-14.6a78.147 78.147 0 00-6.284-8.31 78.525 78.525 0 00-6.31 8.337v-.003zm-1.651-20.8a7.971 7.971 0 017.961-7.971 7.963 7.963 0 017.961 7.962 7.976 7.976 0 01-7.961 7.97A7.969 7.969 0 015.2 7.971l.001-.007zm2.053-.009a5.916 5.916 0 005.909 5.909 5.917 5.917 0 005.909-5.909 5.917 5.917 0 00-5.909-5.909 5.916 5.916 0 00-5.91 5.916l.001-.007z"/></symbol><symbol viewBox="0 0 32 34" id="icon-search" xmlns="http://www.w3.org/2000/svg"><path d="M31.49 32.681l-12.51-12.51c4.583-4.013 5.16-10.937 1.304-15.653C16.428-.2 9.528-1.01 4.684 2.684c-4.845 3.694-5.889 10.563-2.361 15.53 3.527 4.966 10.357 6.242 15.44 2.885l12.661 12.662a.764.764 0 00.533.224.74.74 0 00.533-.224.767.767 0 000-1.08zM1.514 11.484c0-5.506 4.464-9.97 9.97-9.97s9.97 4.464 9.97 9.97-4.464 9.97-9.97 9.97c-5.503-.008-9.962-4.467-9.97-9.97z"/></symbol></svg>