<svg xmlns="http://www.w3.org/2000/svg" viewBox="0 0 27 50">
    <path d="M.657 44.164c-1.669-3.8-.152-9.363 4.489-16.538a77.082 77.082 0 017.266-9.435l.759-.821.759.821a78 78 0 017.266 9.435c4.641 7.176 6.15 12.737 4.489 16.538-1.579 3.544-5.783 5.347-12.523 5.347-6.74 0-10.951-1.794-12.505-5.347zm6.195-15.4c-4.178 6.453-5.668 11.488-4.32 14.576 1.2 2.732 4.774 4.115 10.621 4.115s9.426-1.383 10.622-4.115c1.356-3.088-.143-8.132-4.329-14.6a78.147 78.147 0 00-6.284-8.31 78.525 78.525 0 00-6.31 8.337v-.003zm-1.651-20.8a7.971 7.971 0 017.961-7.971 7.963 7.963 0 017.961 7.962 7.976 7.976 0 01-7.961 7.97A7.969 7.969 0 015.2 7.971l.001-.007zm2.053-.009a5.916 5.916 0 005.909 5.909 5.917 5.917 0 005.909-5.909 5.917 5.917 0 00-5.909-5.909 5.916 5.916 0 00-5.91 5.916l.001-.007z"/>
</svg>
