<svg xmlns="http://www.w3.org/2000/svg" viewBox="0 0 39 50">
    <path d="M37.477 25.002h-2.088V6.165h-.63c-.009 0-.018-.009-.027-.018l-9.414-5.04a.9.9 0 10-.846 1.581l6.48 3.474h-10.62V4.688a.855.855 0 10-1.71 0v1.486H7.434l6.5-3.474a.9.9 0 10-.848-1.584L4.347 5.778a.92.92 0 00-.378.387h-.351v18.837H.855a.855.855 0 100 1.71h17.767v17.676a.834.834 0 00-.09.045l-5.859 3.393a.9.9 0 00.459 1.683.91.91 0 00.45-.117l5.04-2.916v2.178a.855.855 0 101.71 0v-2.25l4.905 2.79a.9.9 0 00.441.117.886.886 0 00.783-.459.9.9 0 00-.333-1.224l-5.8-3.3V26.713h17.149a.855.855 0 100-1.71v-.001zM5.328 7.875H17.38L5.328 22.779V7.875zM5.7 25.002c.041-.037.08-.076.117-.117L18.622 9.063v15.939H5.7zm14.634 0V9.468l12.472 15.534H20.334zm13.347-1.629L21.25 7.875h12.438v15.5l-.007-.002z"/>
</svg>
