<svg xmlns="http://www.w3.org/2000/svg" width="20" height="15" viewBox="0 0 20 15">
  <path id="Контур_4" data-name="Контур 4" d="M19.688,77.75H18.75v-2.5a8.744,8.744,0,0,0-8.125-8.718V65.25h1.563a.312.312,0,0,0,.313-.312v-.625A.312.312,0,0,0,12.188,64H7.812a.312.312,0,0,0-.312.313v.625a.312.312,0,0,0,.312.313H9.375v1.282A8.744,8.744,0,0,0,1.25,75.25v2.5H.313A.312.312,0,0,0,0,78.063v.625A.312.312,0,0,0,.313,79H19.688A.312.312,0,0,0,20,78.688v-.625A.312.312,0,0,0,19.688,77.75Zm-2.187,0H2.5v-2.5a7.517,7.517,0,0,1,6.963-7.471,4.114,4.114,0,0,1,1.073,0A7.517,7.517,0,0,1,17.5,75.25Z" transform="translate(0 -64)"/>
</svg>
