<svg xmlns="http://www.w3.org/2000/svg" width="22.5" height="20" viewBox="0 0 22.5 20">
  <path id="Контур_1" data-name="Контур 1" d="M21.562,2.5H5.05L4.725.765A.938.938,0,0,0,3.8,0H.469A.469.469,0,0,0,0,.469V.781a.469.469,0,0,0,.469.469H3.544L6.275,15.818a2.5,2.5,0,1,0,4.014.432H15.96a2.5,2.5,0,1,0,3.907-.542.938.938,0,0,0-.91-.708H7.394l-.469-2.5H19.87a.938.938,0,0,0,.918-.746L22.48,3.629A.938.938,0,0,0,21.562,2.5ZM9.375,17.5a1.25,1.25,0,1,1-1.25-1.25A1.251,1.251,0,0,1,9.375,17.5Zm8.75,1.25a1.25,1.25,0,1,1,1.25-1.25A1.251,1.251,0,0,1,18.125,18.75Zm1.49-7.5H6.691L5.284,3.75H21.178Z"/>
</svg>
